# xmcd
#
# Track frame offsets:
#	150
#	20328
#	35362
#	49807
#	68420
#	85000
#	101493
#	116140
#	127249
#	147139
#	162438
#	175107
#	189113
#	203001
#	217518
#	232033
#	248089
#	260066
#	273705
#	283708
#	302356
#	317139
#	331929
#	342248
#
# Disc length: 4718 seconds
#
# Revision: 0
# Processed by: cddbd v1.5.2PL0 Copyright (c) Steve Scherf et al.
# Submitted via: audiograbber 1.83.01
#
DISCID=53126c18
DTITLE=Western Heart - Western Heart 087
DYEAR=2008
DGENRE=Country
TTITLE0=Love Crosses Borders - Danny Griego
TTITLE1=I Hope You Turn Me Down  - Erin Hay
TTITLE2=Last Bus To Dallas  - Dani  Ashworth
TTITLE3=Slow Motion  - Tim Chesney
TTITLE4=Somebody´s Angel  - Gina Michaells
TTITLE5=Big Time Stuff  - The Shady Creek Outlaws
TTITLE6=It´s All Up Hill  - Gina Michaells
TTITLE7=Charlie Brown  - Jim Marlboro and The Cruisers
TTITLE8=Why Did Ya  - Karin Euren
TTITLE9=Across The Miles - The Matekies
TTITLE10=If You´re Man Enough  - Judy Weldon
TTITLE11=Bought Some Roses - Stephen Shepherd
TTITLE12=Change  - Christine Vanhoy
TTITLE13=Forever  - Vin Lamar
TTITLE14=Did I Open My Eyes  - B Thomas
TTITLE15=Gimme Some Water  - Eddie Money
TTITLE16=Honey, Who Do You Love  - Bill Durham
TTITLE17=My Parade Of Dreams  - The Landlocks
TTITLE18=Special Olympian  - Paul Sabatino
TTITLE19=My Precious Lord  - Judy Welden
TTITLE20=Me My Truck And God  - Ambrogio
TTITLE21=A New Man - Jerry Yates
TTITLE22=Honky Tonk Hardwood Floor  - Ernie Ashworth
TTITLE23=Dig Me A Hole  - Hal Willis 
EXTD=
EXTT0=
EXTT1=
EXTT2=
EXTT3=
EXTT4=
EXTT5=
EXTT6=
EXTT7=
EXTT8=
EXTT9=
EXTT10=
EXTT11=
EXTT12=
EXTT13=
EXTT14=
EXTT15=
EXTT16=
EXTT17=
EXTT18=
EXTT19=
EXTT20=
EXTT21=
EXTT22=
EXTT23=
PLAYORDER=
